<?xml version="1.0" encoding="UTF-8"?>
<svg xmlns="http://www.w3.org/2000/svg" xmlns:xlink="http://www.w3.org/1999/xlink" width="288pt" height="288pt" viewBox="0 0 288 288" version="1.1">
<g id="surface11">
<rect x="0" y="0" width="288" height="288" style="fill:rgb(100%,100%,100%);fill-opacity:1;stroke:none;"/>
<path style="fill-rule:nonzero;fill:rgb(0%,0%,0%);fill-opacity:1;stroke-width:0.708661;stroke-linecap:round;stroke-linejoin:round;stroke:rgb(0%,0%,0%);stroke-opacity:1;stroke-miterlimit:10;" d="M 86.675781 13.089844 C 86.675781 15.699219 82.765625 15.699219 82.765625 13.089844 C 82.765625 10.484375 86.675781 10.484375 86.675781 13.089844 "/>
<path style="fill-rule:nonzero;fill:rgb(0%,0%,0%);fill-opacity:1;stroke-width:0.708661;stroke-linecap:round;stroke-linejoin:round;stroke:rgb(0%,0%,0%);stroke-opacity:1;stroke-miterlimit:10;" d="M 86.675781 13.089844 C 86.675781 15.699219 82.765625 15.699219 82.765625 13.089844 C 82.765625 10.484375 86.675781 10.484375 86.675781 13.089844 "/>
<path style="fill-rule:nonzero;fill:rgb(0%,0%,0%);fill-opacity:1;stroke-width:0.708661;stroke-linecap:round;stroke-linejoin:round;stroke:rgb(0%,0%,0%);stroke-opacity:1;stroke-miterlimit:10;" d="M 65.679688 274.910156 C 65.679688 277.515625 61.769531 277.515625 61.769531 274.910156 C 61.769531 272.300781 65.679688 272.300781 65.679688 274.910156 "/>
<path style="fill-rule:nonzero;fill:rgb(0%,0%,0%);fill-opacity:1;stroke-width:0.708661;stroke-linecap:round;stroke-linejoin:round;stroke:rgb(0%,0%,0%);stroke-opacity:1;stroke-miterlimit:10;" d="M 86.675781 274.910156 C 86.675781 277.515625 82.765625 277.515625 82.765625 274.910156 C 82.765625 272.300781 86.675781 272.300781 86.675781 274.910156 "/>
<path style="fill-rule:nonzero;fill:rgb(0%,0%,0%);fill-opacity:1;stroke-width:0.708661;stroke-linecap:round;stroke-linejoin:round;stroke:rgb(0%,0%,0%);stroke-opacity:1;stroke-miterlimit:10;" d="M 166.949219 13.089844 C 166.949219 15.699219 163.039062 15.699219 163.039062 13.089844 C 163.039062 10.484375 166.949219 10.484375 166.949219 13.089844 "/>
<path style="fill-rule:nonzero;fill:rgb(0%,0%,0%);fill-opacity:1;stroke-width:0.708661;stroke-linecap:round;stroke-linejoin:round;stroke:rgb(0%,0%,0%);stroke-opacity:1;stroke-miterlimit:10;" d="M 80.5 274.910156 C 80.5 277.515625 76.589844 277.515625 76.589844 274.910156 C 76.589844 272.300781 80.5 272.300781 80.5 274.910156 "/>
<path style="fill-rule:nonzero;fill:rgb(0%,0%,0%);fill-opacity:1;stroke-width:0.708661;stroke-linecap:round;stroke-linejoin:round;stroke:rgb(0%,0%,0%);stroke-opacity:1;stroke-miterlimit:10;" d="M 253.398438 13.089844 C 253.398438 15.699219 249.488281 15.699219 249.488281 13.089844 C 249.488281 10.484375 253.398438 10.484375 253.398438 13.089844 "/>
<path style="fill-rule:nonzero;fill:rgb(0%,0%,0%);fill-opacity:1;stroke-width:0.708661;stroke-linecap:round;stroke-linejoin:round;stroke:rgb(0%,0%,0%);stroke-opacity:1;stroke-miterlimit:10;" d="M 27.394531 274.910156 C 27.394531 277.515625 23.484375 277.515625 23.484375 274.910156 C 23.484375 272.300781 27.394531 272.300781 27.394531 274.910156 "/>
<path style="fill-rule:nonzero;fill:rgb(0%,0%,0%);fill-opacity:1;stroke-width:0.708661;stroke-linecap:round;stroke-linejoin:round;stroke:rgb(0%,0%,0%);stroke-opacity:1;stroke-miterlimit:10;" d="M 68.148438 274.910156 C 68.148438 277.515625 64.242188 277.515625 64.242188 274.910156 C 64.242188 272.300781 68.148438 272.300781 68.148438 274.910156 "/>
<path style="fill-rule:nonzero;fill:rgb(0%,0%,0%);fill-opacity:1;stroke-width:0.708661;stroke-linecap:round;stroke-linejoin:round;stroke:rgb(0%,0%,0%);stroke-opacity:1;stroke-miterlimit:10;" d="M 102.730469 274.910156 C 102.730469 277.515625 98.820312 277.515625 98.820312 274.910156 C 98.820312 272.300781 102.730469 272.300781 102.730469 274.910156 "/>
<path style="fill-rule:nonzero;fill:rgb(0%,0%,0%);fill-opacity:1;stroke-width:0.708661;stroke-linecap:round;stroke-linejoin:round;stroke:rgb(0%,0%,0%);stroke-opacity:1;stroke-miterlimit:10;" d="M 102.730469 274.910156 C 102.730469 277.515625 98.820312 277.515625 98.820312 274.910156 C 98.820312 272.300781 102.730469 272.300781 102.730469 274.910156 "/>
<path style="fill-rule:nonzero;fill:rgb(0%,0%,0%);fill-opacity:1;stroke-width:0.708661;stroke-linecap:round;stroke-linejoin:round;stroke:rgb(0%,0%,0%);stroke-opacity:1;stroke-miterlimit:10;" d="M 173.125 13.089844 C 173.125 15.699219 169.214844 15.699219 169.214844 13.089844 C 169.214844 10.484375 173.125 10.484375 173.125 13.089844 "/>
<path style="fill-rule:nonzero;fill:rgb(0%,0%,0%);fill-opacity:1;stroke-width:0.708661;stroke-linecap:round;stroke-linejoin:round;stroke:rgb(0%,0%,0%);stroke-opacity:1;stroke-miterlimit:10;" d="M 173.125 13.089844 C 173.125 15.699219 169.214844 15.699219 169.214844 13.089844 C 169.214844 10.484375 173.125 10.484375 173.125 13.089844 "/>
<path style="fill-rule:nonzero;fill:rgb(0%,0%,0%);fill-opacity:1;stroke-width:0.708661;stroke-linecap:round;stroke-linejoin:round;stroke:rgb(0%,0%,0%);stroke-opacity:1;stroke-miterlimit:10;" d="M 173.125 13.089844 C 173.125 15.699219 169.214844 15.699219 169.214844 13.089844 C 169.214844 10.484375 173.125 10.484375 173.125 13.089844 "/>
<path style="fill-rule:nonzero;fill:rgb(0%,0%,0%);fill-opacity:1;stroke-width:0.708661;stroke-linecap:round;stroke-linejoin:round;stroke:rgb(0%,0%,0%);stroke-opacity:1;stroke-miterlimit:10;" d="M 204 13.089844 C 204 15.699219 200.089844 15.699219 200.089844 13.089844 C 200.089844 10.484375 204 10.484375 204 13.089844 "/>
<path style="fill-rule:nonzero;fill:rgb(0%,0%,0%);fill-opacity:1;stroke-width:0.708661;stroke-linecap:round;stroke-linejoin:round;stroke:rgb(0%,0%,0%);stroke-opacity:1;stroke-miterlimit:10;" d="M 216.347656 13.089844 C 216.347656 15.699219 212.441406 15.699219 212.441406 13.089844 C 212.441406 10.484375 216.347656 10.484375 216.347656 13.089844 "/>
<path style="fill-rule:nonzero;fill:rgb(0%,0%,0%);fill-opacity:1;stroke-width:0.708661;stroke-linecap:round;stroke-linejoin:round;stroke:rgb(0%,0%,0%);stroke-opacity:1;stroke-miterlimit:10;" d="M 234.875 13.089844 C 234.875 15.699219 230.964844 15.699219 230.964844 13.089844 C 230.964844 10.484375 234.875 10.484375 234.875 13.089844 "/>
<path style="fill-rule:nonzero;fill:rgb(0%,0%,0%);fill-opacity:1;stroke-width:0.708661;stroke-linecap:round;stroke-linejoin:round;stroke:rgb(0%,0%,0%);stroke-opacity:1;stroke-miterlimit:10;" d="M 24.925781 274.910156 C 24.925781 277.515625 21.015625 277.515625 21.015625 274.910156 C 21.015625 272.300781 24.925781 272.300781 24.925781 274.910156 "/>
<path style="fill-rule:nonzero;fill:rgb(0%,0%,0%);fill-opacity:1;stroke-width:0.708661;stroke-linecap:round;stroke-linejoin:round;stroke:rgb(0%,0%,0%);stroke-opacity:1;stroke-miterlimit:10;" d="M 15.046875 274.910156 C 15.046875 277.515625 11.136719 277.515625 11.136719 274.910156 C 11.136719 272.300781 15.046875 272.300781 15.046875 274.910156 "/>
<path style="fill-rule:nonzero;fill:rgb(0%,0%,0%);fill-opacity:1;stroke-width:0.708661;stroke-linecap:round;stroke-linejoin:round;stroke:rgb(0%,0%,0%);stroke-opacity:1;stroke-miterlimit:10;" d="M 31.101562 274.910156 C 31.101562 277.515625 27.191406 277.515625 27.191406 274.910156 C 27.191406 272.300781 31.101562 272.300781 31.101562 274.910156 "/>
<path style="fill-rule:nonzero;fill:rgb(0%,0%,0%);fill-opacity:1;stroke-width:0.708661;stroke-linecap:round;stroke-linejoin:round;stroke:rgb(0%,0%,0%);stroke-opacity:1;stroke-miterlimit:10;" d="M 70.621094 274.910156 C 70.621094 277.515625 66.710938 277.515625 66.710938 274.910156 C 66.710938 272.300781 70.621094 272.300781 70.621094 274.910156 "/>
<path style="fill-rule:nonzero;fill:rgb(0%,0%,0%);fill-opacity:1;stroke-width:0.708661;stroke-linecap:round;stroke-linejoin:round;stroke:rgb(0%,0%,0%);stroke-opacity:1;stroke-miterlimit:10;" d="M 136.074219 13.089844 C 136.074219 15.699219 132.164062 15.699219 132.164062 13.089844 C 132.164062 10.484375 136.074219 10.484375 136.074219 13.089844 "/>
<path style="fill-rule:nonzero;fill:rgb(0%,0%,0%);fill-opacity:1;stroke-width:0.708661;stroke-linecap:round;stroke-linejoin:round;stroke:rgb(0%,0%,0%);stroke-opacity:1;stroke-miterlimit:10;" d="M 136.074219 13.089844 C 136.074219 15.699219 132.164062 15.699219 132.164062 13.089844 C 132.164062 10.484375 136.074219 10.484375 136.074219 13.089844 "/>
<path style="fill-rule:nonzero;fill:rgb(0%,0%,0%);fill-opacity:1;stroke-width:0.708661;stroke-linecap:round;stroke-linejoin:round;stroke:rgb(0%,0%,0%);stroke-opacity:1;stroke-miterlimit:10;" d="M 253.398438 13.089844 C 253.398438 15.699219 249.488281 15.699219 249.488281 13.089844 C 249.488281 10.484375 253.398438 10.484375 253.398438 13.089844 "/>
<path style="fill-rule:nonzero;fill:rgb(0%,0%,0%);fill-opacity:1;stroke-width:0.708661;stroke-linecap:round;stroke-linejoin:round;stroke:rgb(0%,0%,0%);stroke-opacity:1;stroke-miterlimit:10;" d="M 166.949219 13.089844 C 166.949219 15.699219 163.039062 15.699219 163.039062 13.089844 C 163.039062 10.484375 166.949219 10.484375 166.949219 13.089844 "/>
<path style="fill-rule:nonzero;fill:rgb(0%,0%,0%);fill-opacity:1;stroke-width:0.708661;stroke-linecap:round;stroke-linejoin:round;stroke:rgb(0%,0%,0%);stroke-opacity:1;stroke-miterlimit:10;" d="M 32.335938 274.910156 C 32.335938 277.515625 28.425781 277.515625 28.425781 274.910156 C 28.425781 272.300781 32.335938 272.300781 32.335938 274.910156 "/>
<path style="fill-rule:nonzero;fill:rgb(0%,0%,0%);fill-opacity:1;stroke-width:0.708661;stroke-linecap:round;stroke-linejoin:round;stroke:rgb(0%,0%,0%);stroke-opacity:1;stroke-miterlimit:10;" d="M 123.726562 13.089844 C 123.726562 15.699219 119.816406 15.699219 119.816406 13.089844 C 119.816406 10.484375 123.726562 10.484375 123.726562 13.089844 "/>
<path style="fill-rule:nonzero;fill:rgb(0%,0%,0%);fill-opacity:1;stroke-width:0.708661;stroke-linecap:round;stroke-linejoin:round;stroke:rgb(0%,0%,0%);stroke-opacity:1;stroke-miterlimit:10;" d="M 90.378906 274.910156 C 90.378906 277.515625 86.46875 277.515625 86.46875 274.910156 C 86.46875 272.300781 90.378906 272.300781 90.378906 274.910156 "/>
<path style="fill-rule:nonzero;fill:rgb(0%,0%,0%);fill-opacity:1;stroke-width:0.708661;stroke-linecap:round;stroke-linejoin:round;stroke:rgb(0%,0%,0%);stroke-opacity:1;stroke-miterlimit:10;" d="M 276.863281 13.089844 C 276.863281 15.699219 272.953125 15.699219 272.953125 13.089844 C 272.953125 10.484375 276.863281 10.484375 276.863281 13.089844 "/>
<path style="fill-rule:nonzero;fill:rgb(0%,0%,0%);fill-opacity:1;stroke-width:0.708661;stroke-linecap:round;stroke-linejoin:round;stroke:rgb(0%,0%,0%);stroke-opacity:1;stroke-miterlimit:10;" d="M 166.949219 13.089844 C 166.949219 15.699219 163.039062 15.699219 163.039062 13.089844 C 163.039062 10.484375 166.949219 10.484375 166.949219 13.089844 "/>
<path style="fill:none;stroke-width:2.133957;stroke-linecap:butt;stroke-linejoin:round;stroke:rgb(100%,64.705882%,0%);stroke-opacity:1;stroke-miterlimit:10;" d="M 13.089844 274.714844 L 16.40625 274.652344 L 19.71875 274.570312 L 23.035156 274.464844 L 26.347656 274.324219 L 29.660156 274.140625 L 32.976562 273.902344 L 36.289062 273.585938 L 39.605469 273.167969 L 42.917969 272.625 L 46.234375 271.914062 L 49.546875 270.984375 L 52.859375 269.769531 L 56.175781 268.191406 L 59.488281 266.148438 L 62.804688 263.503906 L 66.117188 260.113281 L 69.429688 255.789062 L 72.746094 250.328125 L 76.058594 243.511719 L 79.375 235.117188 L 82.6875 224.96875 L 86.003906 212.949219 L 89.316406 199.078125 L 92.628906 183.519531 L 95.945312 166.625 L 99.257812 148.917969 L 102.574219 131.027344 L 105.886719 113.613281 L 109.203125 97.269531 L 112.515625 82.4375 L 115.828125 69.390625 L 119.144531 58.222656 L 122.457031 48.886719 L 125.773438 41.230469 L 129.085938 35.050781 L 132.402344 30.128906 L 135.714844 26.25 L 139.027344 23.21875 L 142.34375 20.863281 L 145.65625 19.042969 L 148.972656 17.640625 L 152.285156 16.566406 L 155.597656 15.742188 L 158.914062 15.109375 L 162.226562 14.628906 L 165.542969 14.261719 L 168.855469 13.984375 L 172.171875 13.769531 L 175.484375 13.605469 L 178.796875 13.484375 L 182.113281 13.390625 L 185.425781 13.316406 L 188.742188 13.265625 L 192.054688 13.222656 L 195.371094 13.191406 L 198.683594 13.167969 L 201.996094 13.148438 L 205.3125 13.136719 L 208.625 13.125 L 211.941406 13.117188 L 215.253906 13.109375 L 218.570312 13.105469 L 225.195312 13.097656 L 231.824219 13.097656 L 235.140625 13.09375 L 251.710938 13.09375 L 255.023438 13.089844 L 274.910156 13.089844 "/>
<path style="fill:none;stroke-width:1.066978;stroke-linecap:butt;stroke-linejoin:round;stroke:rgb(74.509804%,74.509804%,74.509804%);stroke-opacity:1;stroke-dasharray:4.267913,4.267913;stroke-miterlimit:10;" d="M 0 144 L 288 144 "/>
</g>
</svg>
