<?xml version="1.0" encoding="UTF-8"?>
<svg xmlns="http://www.w3.org/2000/svg" xmlns:xlink="http://www.w3.org/1999/xlink" width="288pt" height="288pt" viewBox="0 0 288 288" version="1.1">
<g id="surface21">
<rect x="0" y="0" width="288" height="288" style="fill:rgb(100%,100%,100%);fill-opacity:1;stroke:none;"/>
<path style="fill:none;stroke-width:1.066978;stroke-linecap:butt;stroke-linejoin:round;stroke:rgb(0%,0%,0%);stroke-opacity:1;stroke-miterlimit:10;" d="M 168.273438 143.300781 L 61.636719 235.613281 L 168.273438 143.300781 L 274.910156 235.613281 L 168.273438 143.300781 L 168.273438 13.089844 "/>
<path style="fill-rule:nonzero;fill:rgb(0%,0%,0%);fill-opacity:1;stroke-width:0.708661;stroke-linecap:round;stroke-linejoin:round;stroke:rgb(0%,0%,0%);stroke-opacity:1;stroke-miterlimit:10;" d="M 165.402344 134.125 C 165.402344 136.730469 161.492188 136.730469 161.492188 134.125 C 161.492188 131.519531 165.402344 131.519531 165.402344 134.125 "/>
<path style="fill-rule:nonzero;fill:rgb(0%,0%,0%);fill-opacity:1;stroke-width:0.708661;stroke-linecap:round;stroke-linejoin:round;stroke:rgb(0%,0%,0%);stroke-opacity:1;stroke-miterlimit:10;" d="M 234.597656 253.050781 C 234.597656 255.65625 230.691406 255.65625 230.691406 253.050781 C 230.691406 250.445312 234.597656 250.445312 234.597656 253.050781 "/>
<path style="fill-rule:nonzero;fill:rgb(0%,0%,0%);fill-opacity:1;stroke-width:0.708661;stroke-linecap:round;stroke-linejoin:round;stroke:rgb(0%,0%,0%);stroke-opacity:1;stroke-miterlimit:10;" d="M 139.273438 207.664062 C 139.273438 210.269531 135.367188 210.269531 135.367188 207.664062 C 135.367188 205.058594 139.273438 205.058594 139.273438 207.664062 "/>
<path style="fill-rule:nonzero;fill:rgb(0%,0%,0%);fill-opacity:1;stroke-width:0.708661;stroke-linecap:round;stroke-linejoin:round;stroke:rgb(0%,0%,0%);stroke-opacity:1;stroke-miterlimit:10;" d="M 97.75 162.75 C 97.75 165.355469 93.839844 165.355469 93.839844 162.75 C 93.839844 160.144531 97.75 160.144531 97.75 162.75 "/>
<path style="fill-rule:nonzero;fill:rgb(0%,0%,0%);fill-opacity:1;stroke-width:0.708661;stroke-linecap:round;stroke-linejoin:round;stroke:rgb(0%,0%,0%);stroke-opacity:1;stroke-miterlimit:10;" d="M 57.1875 195.246094 C 57.1875 197.855469 53.277344 197.855469 53.277344 195.246094 C 53.277344 192.640625 57.1875 192.640625 57.1875 195.246094 "/>
<path style="fill-rule:nonzero;fill:rgb(0%,0%,0%);fill-opacity:1;stroke-width:0.708661;stroke-linecap:round;stroke-linejoin:round;stroke:rgb(0%,0%,0%);stroke-opacity:1;stroke-miterlimit:10;" d="M 105.125 164.316406 C 105.125 166.921875 101.214844 166.921875 101.214844 164.316406 C 101.214844 161.710938 105.125 161.710938 105.125 164.316406 "/>
<path style="fill-rule:nonzero;fill:rgb(0%,0%,0%);fill-opacity:1;stroke-width:0.708661;stroke-linecap:round;stroke-linejoin:round;stroke:rgb(0%,0%,0%);stroke-opacity:1;stroke-miterlimit:10;" d="M 195.511719 159.007812 C 195.511719 161.613281 191.601562 161.613281 191.601562 159.007812 C 191.601562 156.402344 195.511719 156.402344 195.511719 159.007812 "/>
<path style="fill-rule:nonzero;fill:rgb(0%,0%,0%);fill-opacity:1;stroke-width:0.708661;stroke-linecap:round;stroke-linejoin:round;stroke:rgb(0%,0%,0%);stroke-opacity:1;stroke-miterlimit:10;" d="M 190.238281 188.621094 C 190.238281 191.226562 186.328125 191.226562 186.328125 188.621094 C 186.328125 186.015625 190.238281 186.015625 190.238281 188.621094 "/>
<path style="fill-rule:nonzero;fill:rgb(0%,0%,0%);fill-opacity:1;stroke-width:0.708661;stroke-linecap:round;stroke-linejoin:round;stroke:rgb(0%,0%,0%);stroke-opacity:1;stroke-miterlimit:10;" d="M 132.769531 206.09375 C 132.769531 208.703125 128.863281 208.703125 128.863281 206.09375 C 128.863281 203.488281 132.769531 203.488281 132.769531 206.09375 "/>
<path style="fill-rule:nonzero;fill:rgb(0%,0%,0%);fill-opacity:1;stroke-width:0.708661;stroke-linecap:round;stroke-linejoin:round;stroke:rgb(0%,0%,0%);stroke-opacity:1;stroke-miterlimit:10;" d="M 119.523438 175.195312 C 119.523438 177.800781 115.613281 177.800781 115.613281 175.195312 C 115.613281 172.589844 119.523438 172.589844 119.523438 175.195312 "/>
<path style="fill-rule:nonzero;fill:rgb(0%,0%,0%);fill-opacity:1;stroke-width:0.708661;stroke-linecap:round;stroke-linejoin:round;stroke:rgb(0%,0%,0%);stroke-opacity:1;stroke-miterlimit:10;" d="M 186.632812 274.910156 C 186.632812 277.515625 182.726562 277.515625 182.726562 274.910156 C 182.726562 272.300781 186.632812 272.300781 186.632812 274.910156 "/>
<path style="fill-rule:nonzero;fill:rgb(0%,0%,0%);fill-opacity:1;stroke-width:0.708661;stroke-linecap:round;stroke-linejoin:round;stroke:rgb(0%,0%,0%);stroke-opacity:1;stroke-miterlimit:10;" d="M 150.0625 206.699219 C 150.0625 209.304688 146.152344 209.304688 146.152344 206.699219 C 146.152344 204.089844 150.0625 204.089844 150.0625 206.699219 "/>
<path style="fill-rule:nonzero;fill:rgb(0%,0%,0%);fill-opacity:1;stroke-width:0.708661;stroke-linecap:round;stroke-linejoin:round;stroke:rgb(0%,0%,0%);stroke-opacity:1;stroke-miterlimit:10;" d="M 184.054688 193.988281 C 184.054688 196.597656 180.144531 196.597656 180.144531 193.988281 C 180.144531 191.382812 184.054688 191.382812 184.054688 193.988281 "/>
<path style="fill-rule:nonzero;fill:rgb(0%,0%,0%);fill-opacity:1;stroke-width:0.708661;stroke-linecap:round;stroke-linejoin:round;stroke:rgb(0%,0%,0%);stroke-opacity:1;stroke-miterlimit:10;" d="M 15.046875 146.902344 C 15.046875 149.507812 11.136719 149.507812 11.136719 146.902344 C 11.136719 144.292969 15.046875 144.292969 15.046875 146.902344 "/>
<path style="fill-rule:nonzero;fill:rgb(0%,0%,0%);fill-opacity:1;stroke-width:0.708661;stroke-linecap:round;stroke-linejoin:round;stroke:rgb(0%,0%,0%);stroke-opacity:1;stroke-miterlimit:10;" d="M 154.765625 167.058594 C 154.765625 169.664062 150.855469 169.664062 150.855469 167.058594 C 150.855469 164.453125 154.765625 164.453125 154.765625 167.058594 "/>
<path style="fill-rule:nonzero;fill:rgb(0%,0%,0%);fill-opacity:1;stroke-width:0.708661;stroke-linecap:round;stroke-linejoin:round;stroke:rgb(0%,0%,0%);stroke-opacity:1;stroke-miterlimit:10;" d="M 83.863281 190.945312 C 83.863281 193.550781 79.953125 193.550781 79.953125 190.945312 C 79.953125 188.339844 83.863281 188.339844 83.863281 190.945312 "/>
<path style="fill-rule:nonzero;fill:rgb(0%,0%,0%);fill-opacity:1;stroke-width:0.708661;stroke-linecap:round;stroke-linejoin:round;stroke:rgb(0%,0%,0%);stroke-opacity:1;stroke-miterlimit:10;" d="M 173.988281 153.820312 C 173.988281 156.429688 170.078125 156.429688 170.078125 153.820312 C 170.078125 151.214844 173.988281 151.214844 173.988281 153.820312 "/>
<path style="fill-rule:nonzero;fill:rgb(0%,0%,0%);fill-opacity:1;stroke-width:0.708661;stroke-linecap:round;stroke-linejoin:round;stroke:rgb(0%,0%,0%);stroke-opacity:1;stroke-miterlimit:10;" d="M 139.125 126.253906 C 139.125 128.859375 135.214844 128.859375 135.214844 126.253906 C 135.214844 123.644531 139.125 123.644531 139.125 126.253906 "/>
<path style="fill-rule:nonzero;fill:rgb(0%,0%,0%);fill-opacity:1;stroke-width:0.708661;stroke-linecap:round;stroke-linejoin:round;stroke:rgb(0%,0%,0%);stroke-opacity:1;stroke-miterlimit:10;" d="M 160.03125 159.628906 C 160.03125 162.234375 156.125 162.234375 156.125 159.628906 C 156.125 157.023438 160.03125 157.023438 160.03125 159.628906 "/>
<path style="fill-rule:nonzero;fill:rgb(0%,0%,0%);fill-opacity:1;stroke-width:0.708661;stroke-linecap:round;stroke-linejoin:round;stroke:rgb(0%,0%,0%);stroke-opacity:1;stroke-miterlimit:10;" d="M 187.894531 176.496094 C 187.894531 179.101562 183.988281 179.101562 183.988281 176.496094 C 183.988281 173.890625 187.894531 173.890625 187.894531 176.496094 "/>
<path style="fill-rule:nonzero;fill:rgb(0%,0%,0%);fill-opacity:1;stroke-width:0.708661;stroke-linecap:round;stroke-linejoin:round;stroke:rgb(0%,0%,0%);stroke-opacity:1;stroke-miterlimit:10;" d="M 155.835938 169.285156 C 155.835938 171.890625 151.925781 171.890625 151.925781 169.285156 C 151.925781 166.679688 155.835938 166.679688 155.835938 169.285156 "/>
<path style="fill-rule:nonzero;fill:rgb(0%,0%,0%);fill-opacity:1;stroke-width:0.708661;stroke-linecap:round;stroke-linejoin:round;stroke:rgb(0%,0%,0%);stroke-opacity:1;stroke-miterlimit:10;" d="M 189.625 181.199219 C 189.625 183.808594 185.714844 183.808594 185.714844 181.199219 C 185.714844 178.59375 189.625 178.59375 189.625 181.199219 "/>
<path style="fill-rule:nonzero;fill:rgb(0%,0%,0%);fill-opacity:1;stroke-width:0.708661;stroke-linecap:round;stroke-linejoin:round;stroke:rgb(0%,0%,0%);stroke-opacity:1;stroke-miterlimit:10;" d="M 191.332031 173.894531 C 191.332031 176.5 187.421875 176.5 187.421875 173.894531 C 187.421875 171.285156 191.332031 171.285156 191.332031 173.894531 "/>
<path style="fill-rule:nonzero;fill:rgb(0%,0%,0%);fill-opacity:1;stroke-width:0.708661;stroke-linecap:round;stroke-linejoin:round;stroke:rgb(0%,0%,0%);stroke-opacity:1;stroke-miterlimit:10;" d="M 167.128906 145.984375 C 167.128906 148.589844 163.21875 148.589844 163.21875 145.984375 C 163.21875 143.378906 167.128906 143.378906 167.128906 145.984375 "/>
<path style="fill-rule:nonzero;fill:rgb(0%,0%,0%);fill-opacity:1;stroke-width:0.708661;stroke-linecap:round;stroke-linejoin:round;stroke:rgb(0%,0%,0%);stroke-opacity:1;stroke-miterlimit:10;" d="M 249.761719 213.941406 C 249.761719 216.546875 245.855469 216.546875 245.855469 213.941406 C 245.855469 211.335938 249.761719 211.335938 249.761719 213.941406 "/>
</g>
</svg>
